# xmcd
# 
# Track frame offsets:
#     150
#     20745
#     37020
#     55318
#     76747
#     97035
#     118396
#     135316
#     153161
#     171664
# 
# Disc length: 2623
# 
# Revision: 0
# Processed by: cddbd v1.5.2PL0 Copyright (c) Steve Scherf et al.
# Submitted via: fre:ac v1.0.31
# 
DISCID=850a3d0a
DTITLE=Julian Lage - Love Hurts
DYEAR=0
DGENRE=Jazz
TTITLE0=In Heaven
TTITLE1=Tomorrow Is The Question
TTITLE2=The Windup
TTITLE3=Love Hurts
TTITLE4=In Circles
TTITLE5=Encore A
TTITLE6=Lullaby
TTITLE7=Trudgin'
TTITLE8=I'm Getting Sentimental Over You
TTITLE9=Crying
EXTD=
EXTT0=
EXTT1=
EXTT2=
EXTT3=
EXTT4=
EXTT5=
EXTT6=
EXTT7=
EXTT8=
EXTT9=
PLAYORDER=
